<?xml version="1.0" encoding="UTF-8"?>
<!DOCTYPE svg PUBLIC "-//W3C//DTD SVG 1.1//EN" "http://www.w3.org/Graphics/SVG/1.1/DTD/svg11.dtd">
<!-- Creator: CorelDRAW X6 -->
<svg xmlns="http://www.w3.org/2000/svg" xml:space="preserve" width="169.333mm" height="169.333mm" version="1.1" style="shape-rendering:geometricPrecision; text-rendering:geometricPrecision; image-rendering:optimizeQuality; fill-rule:evenodd; clip-rule:evenodd"
viewBox="0 0 16933 16933"
 xmlns:xlink="http://www.w3.org/1999/xlink">
 <defs>
  <style type="text/css">
   <![CDATA[
    .fil0 {fill:#6C6B6D}
    .fil1 {fill:#FEFEFE;fill-rule:nonzero}
   ]]>
  </style>
 </defs>
 <g id="图层_x0020_1">
  <metadata id="CorelCorpID_0Corel-Layer"/>
  <g id="_2107897616">
   <polygon class="fil0" points="0,0 11289,0 16933,5644 16933,16933 0,16933 "/>
   <path class="fil1" d="M2644 7137l-1852 0 0 8865 6260 0 0 -1605 -4408 0 0 -7260zm9793 5581l2062 0c-82,288 -183,552 -303,790 -119,239 -268,445 -445,617 -177,173 -387,307 -630,401 -243,95 -525,142 -846,142 -445,0 -825,-80 -1142,-241 -317,-161 -576,-377 -778,-648 -202,-272 -350,-589 -445,-951 -95,-362 -142,-745 -142,-1148 0,-403 45,-801 136,-1192 91,-391 235,-739 432,-1043 198,-305 457,-549 778,-735 321,-185 712,-278 1173,-278 222,0 440,33 654,99 214,66 410,161 586,284 177,123 329,276 457,457 128,181 216,387 265,617l1852 0c-74,-502 -226,-940 -457,-1315 -230,-375 -519,-685 -864,-932 -346,-247 -739,-432 -1179,-556 -440,-123 -899,-185 -1377,-185 -708,0 -1331,119 -1871,358 -539,239 -992,570 -1358,994 -366,424 -644,924 -833,1500 -189,576 -284,1202 -284,1877 0,617 88,1206 265,1766 177,560 436,1050 778,1469 342,420 766,753 1272,1000 506,247 1093,370 1759,370 313,0 597,-27 852,-80 255,-54 490,-136 704,-247 214,-111 420,-251 617,-420 198,-169 395,-368 593,-599l185 1111 1235 0 0 -4778 -3704 0 0 1494z"/>
  </g>
 </g>
</svg>
