<svg clip-rule="evenodd" fill-rule="evenodd" height="169.333mm" image-rendering="optimizeQuality" shape-rendering="geometricPrecision" text-rendering="geometricPrecision" viewBox="0 0 16933 16933" width="169.333mm" xmlns="http://www.w3.org/2000/svg"><path d="m0 0h11289l5644 5644v11289h-16933z" fill="#6c6b6d"/><path d="m2644 7137h-1852v8865h6260v-1605h-4408zm9793 5581h2062c-82 288-183 552-303 790-119 239-268 445-445 617-177 173-387 307-630 401-243 95-525 142-846 142-445 0-825-80-1142-241s-576-377-778-648c-202-272-350-589-445-951s-142-745-142-1148 45-801 136-1192 235-739 432-1043c198-305 457-549 778-735 321-185 712-278 1173-278 222 0 440 33 654 99s410 161 586 284c177 123 329 276 457 457s216 387 265 617h1852c-74-502-226-940-457-1315-230-375-519-685-864-932-346-247-739-432-1179-556-440-123-899-185-1377-185-708 0-1331 119-1871 358-539 239-992 570-1358 994s-644 924-833 1500-284 1202-284 1877c0 617 88 1206 265 1766s436 1050 778 1469c342 420 766 753 1272 1000s1093 370 1759 370c313 0 597-27 852-80 255-54 490-136 704-247s420-251 617-420c198-169 395-368 593-599l185 1111h1235v-4778h-3704v1494z" fill="#fefefe" fill-rule="nonzero"/></svg>